<?xml version="1.0" encoding="UTF-8"?>
<svg id="Layer_1" width="200" height="60" data-name="Layer 1" xmlns="http://www.w3.org/2000/svg" viewBox="0 0 430.5 91.21">
  <path d="M78,25.4c-6.4-1.6-8.4-3.3-10.2-8.9C64.4,5.7,57.5,0,47.8,0s-16.6,5.7-20,16.5c-1.8,5.6-3.8,7.3-10.2,8.9C6.7,28.1,0,35.6,0,45.6s6.7,17.5,17.6,20.2c6.4,1.6,8.4,3.3,10.2,8.9,3.4,10.8,10.3,16.5,20,16.5s16.6-5.7,20-16.5c1.8-5.6,3.8-7.3,10.2-8.9,10.9-2.7,17.6-10.2,17.6-20.2s-6.7-17.5-17.6-20.2ZM63.5,60.5c-6.5,0-11.9-4.5-13.4-10.6h-4.4c-1.5,6-7,10.6-13.5,10.6-7.6,0-13.8-6.3-13.8-13.9s6.2-13.8,13.8-13.8c6.5,0,12,4.5,13.5,10.5h4.4c1.5-6.1,6.9-10.5,13.4-10.5,7.6,0,13.9,6.2,13.9,13.8s-6.3,13.9-13.9,13.9Z"/>
  <rect x="57.3" y="40.4" width="12.5" height="12.5"/>
  <rect x="26" y="40.4" width="12.5" height="12.5"/>
  <polygon points="163 10.6 145.8 10.6 129.4 33 112.8 10.6 94.8 10.6 120.48 44.99 93.6 80.6 110.9 80.6 128.8 56.18 146.9 80.6 165 80.6 137.72 44.17 163 10.6"/>
  <path d="M178.8,30.7l16.9-20.1h-17.4l-9,10.6c-2.9,3.5-4.3,7-4.3,10.8s1.4,7.2,4.3,10.8l13.7,17.2-16.1,20.6h17.8l7.9-10c3-3.8,4.4-7.4,4.4-11.3s-1.4-7.5-4.4-11.3l-13.8-17.3Z"/>
  <path d="M239.6,9c-20.5,0-36.6,16.1-36.6,36.6s16.1,36.6,36.6,36.6,36.6-16.1,36.6-36.6-16.1-36.6-36.6-36.6ZM239.6,68.2c-12.3,0-21.6-9.7-21.6-22.6s9.3-22.6,21.6-22.6,21.6,9.7,21.6,22.6-9.3,22.6-21.6,22.6Z"/>
  <polygon points="273 10.6 310.6 80.6 328.2 80.6 290.6 10.6 273 10.6"/>
  <path d="M394.2,10.6h-10.5l-28.64,55.22-29.66-55.22h-17.6l37.6,70h85.1l-36.3-70ZM369.73,67.6l18.89-37.58,18.86,37.58h-37.75Z"/>
</svg>