<svg xmlns="http://www.w3.org/2000/svg" width="100" height="100" viewBox="0 0 100 100" version="1.1">
    <g fill="none" fill-rule="evenodd">
        <path fill="#0076FF" d="M0 0h100v100H0z"/>
        <path fill="#FFF" d="M75.24 63.393c-4.067 0-7.383-3.29-7.383-7.364 0-4.076 3.316-7.368 7.383-7.368 4.036 0 7.35 3.292 7.35 7.368 0 4.074-3.314 7.364-7.35 7.364m-.002-10.714c1.838 0 3.333 1.523 3.333 3.362a3.338 3.338 0 0 1-3.333 3.334c-1.87 0-3.363-1.497-3.363-3.334a3.366 3.366 0 0 1 3.363-3.362zM45.089 82.143V68.75h4.018v13.393H45.09zm5.357 0V68.75h4.018v13.393h-4.018zm15.666-57.95l4.424 4.733-5.894 6.342-2.46-2.675 3.396-3.656-4.417-4.739.005-.006-.005-.009 2.486-2.648.005.01 3.401-3.688 2.485 2.646-3.426 3.69zM25.013 48.66l8.023 13.393H16.964l8.05-13.393zm.23 7.589l-2.029 2.679h4.018l-1.99-2.679zM42.41 21.915l-4.658 4.632 4.658 4.662-2.698 2.72-4.67-4.663-4.668 4.663-2.696-2.72 4.671-4.662-4.671-4.632 2.696-2.719 4.668 4.66 4.67-4.66 2.698 2.72z"/>
    </g>
</svg>
