<svg class="sc-a328b53d-0 jcSvGW" width="200" height="60" viewBox="0 0 180 38" fill="none" xmlns="http://www.w3.org/2000/svg">
  <g clip-path="url(#clip0_4551_30207)">
    <path fill-rule="evenodd" clip-rule="evenodd" d="M101.783 3.66064C110.095 3.6607 116.831 10.3968 116.831 18.7091C116.831 27.0213 110.095 33.7576 101.783 33.7577C93.4705 33.7577 86.7344 27.0213 86.7344 18.7091C86.7344 10.3968 93.4705 3.66065 101.783 3.66064ZM101.783 9.42078C96.8911 9.42078 92.9245 13.1948 92.9245 18.7093C92.9245 24.2238 96.8911 27.998 101.783 27.998C106.676 27.9979 110.642 24.3117 110.642 18.7093C110.642 13.1069 106.676 9.42086 101.783 9.42078Z" fill="#000000"></path>
    <path fill-rule="evenodd" clip-rule="evenodd" d="M149.42 29.1397L161.591 4.33103H165.892L180 33.088L144.568 33.0877L129.288 4.33103H136.101L149.42 29.1397ZM156.053 28.0371H171.277L163.665 11.852L156.053 28.0371Z" fill="#000000"></path>
    <path d="M137.404 33.0877H130.432L115.152 4.33103H121.965L137.404 33.0877Z" fill="#000000"></path>
    <path d="M49.8825 4.32576L56.6956 13.8421L63.4374 4.32576H70.5625L60.0523 18.4025L71.0694 33.0827H63.2843L56.3748 23.3824L49.1822 33.0827H41.9805L53.0237 18.8383L42.2925 4.32576H49.8825Z" fill="#000000"></path>
    <path d="M76.9238 12.7063L82.5196 19.5264C83.997 21.6339 84.3389 22.4699 84.3389 24.1651C84.3389 25.8603 83.7865 27.2201 82.6646 28.6218L79.1055 33.0783H71.5049L78.8058 24.5718L73.6637 18.3718C72.1066 16.2127 71.6234 14.6548 71.6233 13.2346C71.6233 11.8143 71.9094 10.3492 73.4717 8.45771L76.8386 4.32576H84.3517L76.9238 12.7063Z" fill="#000000"></path>
    <path d="M28.7501 16.5412V21.6609H23.6305V16.5412H28.7501Z" fill="#000000"></path>
    <path d="M15.83 16.536V21.6525H10.7134V16.536H15.83Z" fill="#000000"></path>
    <path fill-rule="evenodd" clip-rule="evenodd" d="M19.887 0.00175794C23.6385 0.0809693 26.7841 2.62335 27.7719 6.07654L27.8556 6.36284C28.7164 9.24857 29.4851 9.87975 32.5857 10.4669L32.585 10.4673C36.4715 11.1989 39.4121 14.6107 39.4121 18.7097C39.4119 22.8386 36.4283 26.2708 32.4995 26.9679C29.3783 27.5684 28.664 28.2355 27.777 31.3229C26.7903 34.801 23.6157 37.3587 19.8349 37.4155C19.7918 37.4163 19.7486 37.4172 19.7053 37.4172C15.8647 37.4171 12.6269 34.8356 11.6323 31.3132C10.7465 28.2341 10.0305 27.5677 6.9126 26.9679C2.98394 26.2707 0.000186751 22.8386 0 18.7097C0 14.6108 2.9407 11.1989 6.82712 10.4673L6.82646 10.4669C9.92695 9.87976 10.6957 9.24856 11.5565 6.36284L11.64 6.07654C12.6436 2.56814 15.8746 9.9479e-05 19.7053 1.26543e-07C19.7061 1.4036e-07 19.7071 -1.64965e-07 19.7079 1.26543e-07L19.887 0.00175794ZM26.2085 13.4119C23.0669 13.4119 20.5201 15.9587 20.52 19.1004C20.52 22.242 23.0669 24.7889 26.2085 24.7889C29.3502 24.7889 31.897 22.2421 31.897 19.1004C31.897 15.9587 29.3502 13.4119 26.2085 13.4119ZM13.2704 13.4086C10.1306 13.4086 7.58522 15.9538 7.58518 19.0936C7.5852 22.2333 10.1306 24.7788 13.2704 24.7788C16.4101 24.7787 18.9553 22.2333 18.9554 19.0936C18.9553 15.9539 16.4101 13.4086 13.2704 13.4086Z" fill="#000000"></path>
  </g>
  <defs>
    <clipPath id="clip0_4551_30207">
      <rect width="180" height="37.35" fill="white"></rect>
    </clipPath>
  </defs>
</svg>
